PathFileType	4	(X/Y/Z)	C:\Users\WrightLab\Desktop\Jo\P1_boxCal14.trc
DataRate	CameraRate	NumFrames	NumMarkers	Units	OrigDataRate	OrigDataStartFrame	OrigNumFrames
100.00	100.00	       28	19	mm	100.00	507	       811
Frame#	Time	Headset_Front			Headset_Back			Headset_Left			Headset_Right			Left_Shoulder			Right_Shoulder			Sternum			C7			Left Elbow			Right Elbow			Left Wrist			Right Wrist			Left ASIS			Right ASIS			S2			Left Knee			Right Knee			Left Ankle			Right Ankle			
		X1	Y1	Z1	X2	Y2	Z2	X3	Y3	Z3	X4	Y4	Z4	X5	Y5	Z5	X6	Y6	Z6	X7	Y7	Z7	X8	Y8	Z8	X9	Y9	Z9	X10	Y10	Z10	X11	Y11	Z11	X12	Y12	Z12	X13	Y13	Z13	X14	Y14	Z14	X15	Y15	Z15	X16	Y16	Z16	X17	Y17	Z17	X18	Y18	Z18	X19	Y19	Z19	

507	5.060	-715.16077	454.54205	25.90914	-706.16785	1479.96436	-213.00766							-679.82916	829.58917	-55.70531							-737.79980	817.32275	-242.84880				-649.58972	777.05823	159.90437	-707.28894	91.08032	37.91772	-742.16437	1023.60931	157.50952				-508.91504	1251.94519	-278.96100	-848.05859	1286.15894	-157.34653	-670.86896	1249.46643	-5.20185				-788.88361	1215.45081	-350.76208	-673.36902	1364.27869	-336.09415	
508	5.070	-713.94720	454.26471	25.92384	-706.25525	1480.46863	-211.86641							-678.57837	829.82684	-56.04288							-737.30518	818.04810	-242.77728				-647.12122	776.79425	158.54103	-706.41345	90.72222	37.73769	-739.60510	1022.80304	158.85327				-509.08194	1253.03760	-279.79730	-847.77478	1286.08093	-156.76840	-668.88824	1249.61182	-4.69379				-789.76831	1215.77637	-350.04315	-673.75787	1364.62573	-335.89600	
509	5.080	-712.37897	453.81558	25.83852	-706.14673	1481.17456	-210.81023							-676.73096	829.90588	-57.04276							-737.44672	817.87390	-242.83359				-645.04584	776.81720	158.65738	-704.87805	91.35693	37.09174	-737.57318	1022.34930	157.50058				-508.90527	1254.03796	-280.81985	-847.14142	1286.86487	-154.27055	-667.38446	1249.69202	-4.80384				-791.23419	1216.60266	-349.25262	-674.76904	1366.13330	-335.00977	
510	5.090	-711.12219	453.53461	25.06109	-706.31158	1481.82837	-210.57259							-675.28192	829.74927	-57.68490							-737.67377	817.59888	-243.32222				-641.94611	775.95050	157.12701	-704.01611	91.45583	37.43062	-734.94208	1021.54144	158.52309				-508.74557	1255.39172	-280.98907	-846.59088	1287.28918	-153.26318	-666.09827	1249.67871	-4.59945				-792.42682	1217.44629	-348.58118	-675.80182	1367.23132	-335.44678	
511	5.100	-709.57190	453.55527	25.08109	-706.95154	1482.54333	-209.37430							-674.54559	829.35492	-58.04966							-737.85065	816.82416	-244.12531				-639.56921	775.66052	156.42177	-705.16284	90.51745	37.96160	-732.13446	1020.91797	157.51570				-508.92432	1257.00867	-281.77032	-846.05377	1287.71460	-151.21576	-664.88586	1249.03503	-4.39651				-793.21027	1217.07068	-347.57855	-676.50989	1367.68494	-334.93604	
512	5.110	-708.21985	451.90820	24.09799	-707.18414	1483.15210	-208.18687							-671.18500	829.57471	-59.52385							-732.62299	820.52716	-245.61191				-636.97638	775.09229	155.52159	-704.01514	90.61530	38.15044	-729.41400	1020.83447	157.25699				-509.08551	1257.75928	-282.64703	-845.53229	1288.18542	-150.14511	-662.87982	1249.43774	-3.67077				-794.88507	1219.12073	-346.74097	-677.84351	1369.09509	-334.68893	
513	5.120	-706.69666	451.65109	23.87352	-708.11023	1484.04089	-207.45909							-670.99750	829.83594	-60.59134							-734.03839	820.43329	-244.98044				-634.19885	774.82642	154.44473	-702.90369	90.83626	37.85930	-726.70123	1020.21960	157.49353				-509.05328	1260.38403	-283.65805	-845.07483	1288.70691	-147.57219	-661.14575	1249.33276	-3.54573				-796.29230	1220.22424	-345.54477	-678.75037	1370.02637	-333.60458	
514	5.130	-704.20935	451.89774	23.89172	-708.46802	1484.86572	-206.66542							-668.70850	830.20740	-61.47552							-732.62299	820.52716	-245.61191				-631.52429	774.24524	153.42227	-703.33246	90.84685	38.42233	-723.90277	1019.93268	157.93448				-509.57285	1261.78040	-284.46570	-844.45264	1288.68225	-147.04924	-658.81891	1249.13757	-3.86221				-797.64978	1220.74512	-344.19949	-679.68665	1371.09424	-333.05701	
515	5.140	-702.26404	451.36642	24.15335	-709.21655	1485.51062	-205.18867							-666.77582	829.72058	-63.31794							-733.89264	820.22217	-246.29372				-627.49487	773.66467	153.32161	-703.35742	90.49632	38.67292	-721.33374	1019.29199	158.46147				-510.01407	1263.08301	-286.51129	-843.71356	1290.11951	-144.20839	-656.56378	1248.87512	-4.23896				-799.29822	1222.03357	-343.42667	-681.17438	1372.13098	-332.53680	
516	5.150	-700.66827	450.64648	22.67685	-709.76587	1485.98853	-204.08199							-665.45648	830.10498	-64.05510							-733.99707	820.45648	-247.07973				-624.62164	773.38702	152.02301	-703.08105	90.48491	39.02393	-717.02264	1018.68420	156.72968				-510.43127	1265.94434	-287.53589	-842.96539	1290.32312	-141.70981	-654.66931	1248.60095	-4.05382				-801.16040	1223.35229	-342.47693	-682.94690	1373.25488	-331.65530	
517	5.160	-699.69507	449.89838	22.53742	-711.21765	1486.95874	-203.25381							-662.51093	831.11829	-66.27168							-734.59357	820.53326	-247.35008				-621.46631	772.72540	150.64493	-702.86786	90.20358	39.03168	-714.59509	1017.61572	157.48311				-511.48392	1267.12915	-288.34048	-842.33594	1290.86523	-140.25760	-652.88190	1247.82056	-4.44838				-802.91553	1224.99731	-341.13528	-684.69348	1374.10901	-331.00647	
518	5.170	-697.74847	449.80750	22.32248	-712.29199	1488.07056	-202.16377							-660.43176	830.94843	-67.67658							-733.48254	822.13721	-248.59991				-619.31317	771.44562	148.47318	-702.81891	90.20547	39.04365	-710.27002	1016.36267	156.49980				-511.81628	1269.67749	-290.98865	-841.60828	1291.51758	-137.79529	-650.19067	1247.73376	-4.86267				-804.90436	1226.50513	-339.96991	-687.53931	1376.22473	-331.13763	
519	5.180	-696.10205	449.02777	22.21540	-713.12567	1488.75488	-200.68744							-657.41260	830.76465	-69.80478							-734.71338	823.09753	-249.59947				-614.21375	769.56183	147.74623	-702.77435	90.20300	39.05771	-706.66864	1015.42419	156.50000				-512.95215	1272.03345	-293.08673	-840.89856	1292.26709	-134.95639	-647.04730	1247.73633	-4.67341				-806.88617	1227.61523	-338.10928	-689.61346	1377.07471	-330.02689	
520	5.190	-693.39899	449.15198	21.82165	-714.53674	1490.10645	-199.46513							-654.45660	831.49628	-71.55588							-735.02698	824.76141	-249.99586				-611.39514	768.99207	146.41692	-701.15063	90.51407	38.43869	-702.88074	1015.49890	156.33324				-514.42273	1274.26392	-295.31018	-840.15259	1292.97144	-133.18832	-645.03741	1247.13208	-5.03133				-808.92279	1228.69617	-336.70068	-692.08380	1378.24854	-328.99011	
521	5.200	-692.33722	447.89941	21.20997	-716.46075	1491.15906	-197.64574							-651.20996	831.89783	-73.54585							-734.11578	826.64655	-252.25334				-608.42902	767.93945	144.63170	-702.16083	89.89892	38.76273	-698.43146	1013.88153	154.76990				-517.10986	1277.16162	-297.77280	-839.08307	1293.72107	-130.51074	-642.37805	1246.34058	-4.96475				-811.05219	1230.38684	-334.85013	-694.99939	1379.17395	-327.62335	
522	5.210	-691.01758	446.69583	19.74352	-717.55798	1492.17957	-197.38010							-649.97858	832.02069	-75.97251							-734.75299	827.30103	-254.26555				-604.91699	766.44684	143.37416	-702.10443	89.91425	38.76658	-694.30896	1012.21582	155.43199				-518.38593	1279.95703	-300.97586	-838.64136	1294.25769	-128.01721	-639.42224	1246.80029	-4.15466				-813.30450	1231.81531	-332.63113	-698.16833	1380.14294	-327.10611	
523	5.220	-689.65710	445.93347	18.97241	-718.94409	1493.34131	-194.91943							-647.09644	832.68445	-79.00920							-735.04156	828.10834	-254.89786				-600.82275	764.92462	141.17714	-701.86304	89.72341	38.84417	-689.93585	1012.39563	154.74110				-520.90881	1282.60266	-304.10938	-836.29211	1292.82910	-125.45137	-636.00885	1245.68555	-6.39129				-815.59149	1233.48376	-330.38391	-701.82294	1381.86182	-326.70416	
524	5.230	-687.94208	445.06772	18.58516	-721.24957	1494.46326	-194.41061							-645.26373	833.01141	-82.83016							-736.71515	829.09082	-256.42816				-597.53064	763.73907	139.49028	-701.55756	88.49886	38.13481	-684.40637	1010.14606	153.75485				-522.51416	1285.59094	-307.20883	-834.59967	1292.82336	-122.75288	-633.78925	1246.43347	-5.11318				-818.24768	1235.73059	-328.74686	-705.13403	1383.54431	-325.29617	
525	5.240	-686.69019	444.72534	17.52311	-722.44019	1495.42041	-192.06488							-643.21973	833.16730	-84.76266							-737.67358	830.66339	-258.11371				-594.09906	762.29071	137.63576	-700.16418	88.69805	36.86502	-680.19635	1009.86731	151.16589				-525.40741	1287.50098	-309.84186	-833.16138	1292.88562	-120.06795	-630.37860	1245.69409	-6.24072				-820.73041	1236.72498	-326.22238	-709.23584	1384.67175	-324.08191	
526	5.250	-685.00378	443.05981	15.67752	-724.44794	1496.39380	-190.48668							-640.64526	833.46631	-87.43998							-737.13715	834.28821	-260.98718				-590.33929	760.97662	134.78067	-699.99097	88.59910	36.94158	-673.12817	1008.00067	148.52263				-527.96155	1290.99194	-313.80032	-831.56390	1293.19958	-117.26713	-626.98859	1243.64319	-8.76422				-823.59088	1238.58521	-324.06430	-712.87695	1385.54993	-323.43326	
527	5.260	-682.89410	442.83389	14.29317	-725.42603	1496.80676	-189.17114							-636.82196	833.18951	-92.04347							-740.04181	833.86774	-261.51917				-586.17529	758.96942	132.35609	-699.69305	88.41482	36.45324	-668.18188	1005.63885	146.78572				-530.52435	1294.36121	-319.02994	-829.90887	1292.70447	-114.33846	-624.71423	1243.33459	-9.71751				-826.44696	1240.51392	-321.91302	-716.83923	1386.81897	-322.03644	
528	5.270	-681.51324	442.13541	11.84469	-726.89880	1496.98108	-187.15173							-634.41815	834.35809	-96.48213							-742.29938	834.33813	-265.12885				-582.29321	757.80054	129.88048	-699.16107	88.33936	36.58171	-664.11340	1005.10956	143.72333				-533.75421	1296.52954	-321.40829	-828.86627	1292.89819	-111.91954	-621.07465	1241.87524	-10.69968				-829.15979	1242.05554	-319.58209	-720.57965	1387.91370	-321.10391	
529	5.280	-680.15454	440.63232	10.04681	-728.91827	1498.16785	-185.00325							-632.39954	833.91504	-99.67416							-742.35938	837.39758	-267.60019				-577.98969	756.08423	127.59306	-698.84100	87.91512	36.08109	-657.00610	1003.38757	142.47549				-536.70007	1299.06982	-325.07275	-827.62640	1292.97070	-109.20996	-617.42694	1241.43054	-13.43129				-832.34631	1243.29919	-317.21759	-725.00317	1389.40088	-321.07919	
530	5.290	-678.59589	439.45581	7.99951	-730.20679	1499.10498	-183.76201							-629.81769	834.27155	-105.20957							-742.71851	838.44763	-269.63788				-573.50903	754.08075	124.21964	-698.16388	87.72338	34.58683	-651.54840	1001.91821	139.80733				-540.84027	1301.21533	-329.00134	-826.81183	1292.97192	-108.07368	-614.05548	1241.00488	-15.32624				-835.35309	1245.36169	-315.46039	-728.82013	1390.57324	-319.74286	
531	5.300	-676.71405	438.16055	5.42955	-731.56018	1499.21741	-183.06468							-627.74341	834.04071	-108.35699							-746.02991	839.05981	-270.35800				-569.29651	752.93475	121.35117	-698.10852	87.75823	34.56138	-645.92053	1001.40717	137.90211				-543.32910	1304.83655	-333.66382	-825.49921	1292.91138	-105.45740	-611.04675	1239.61145	-16.91010				-838.01923	1246.32690	-313.28671	-732.51111	1391.28784	-318.58640	
532	5.310	-675.40356	437.51230	3.19974	-732.71423	1500.19312	-180.45265							-625.91095	834.58569	-112.69047							-749.02405	840.42468	-271.78052				-564.88824	751.37030	118.08051	-697.74384	87.50350	34.60868	-639.02222	999.42200	133.64720				-547.76660	1306.35486	-338.70236	-823.96295	1292.67615	-104.30155	-608.01044	1239.14551	-20.63266				-841.23218	1248.13586	-312.12753	-736.80084	1393.42407	-318.44598	
533	5.320	-672.43903	436.45639	0.43769	-733.70941	1500.64954	-179.77831							-624.54181	834.14526	-116.44541							-750.66766	840.53339	-273.02032				-559.90314	749.86407	114.73257	-697.70984	87.51646	34.61375	-633.53149	998.36487	130.42276				-551.05121	1308.45703	-342.26230	-822.09515	1292.31494	-103.06920	-605.30835	1237.97644	-23.10834				-843.91138	1249.27710	-310.06018	-740.09979	1394.25146	-317.13806	
534	5.330	-670.52277	435.87830	-2.00539	-734.10596	1500.42590	-178.74773							-623.92896	833.95752	-121.31535							-752.54260	841.51599	-276.06662				-554.86932	749.29724	111.61789	-697.66620	87.54395	34.61223	-627.89911	996.98505	126.30826				-555.34235	1310.32568	-345.91116	-820.95288	1292.87329	-101.15825	-601.74066	1237.32544	-26.99233				-847.01984	1250.58191	-309.06522	-743.66168	1395.71680	-316.99496	
